<svg width="603" height="181" viewBox="0 0 603 181" fill="none" xmlns="http://www.w3.org/2000/svg">
<path fill-rule="evenodd" clip-rule="evenodd" d="M595.557 78.4531L595.566 78.464L595.575 78.475C601.415 85.3119 603.62 93.5173 602.052 103.465C600.482 113.43 595.606 121.934 587.21 129.097C578.814 136.262 569.656 139.738 559.585 139.738C556.923 139.738 554.57 139.442 552.498 138.889C550.187 138.242 549.124 137.73 548.799 137.5L541.931 132.634L533.811 174.802H517.013L535.321 68.1982H551.405L554.969 73.9847L558.697 71.4071C561.541 69.4411 565.844 68.1982 572.093 68.1982C582.139 68.1982 589.822 71.6409 595.557 78.4531ZM563.208 123.155C568.552 123.155 573.38 121.261 577.525 117.654C581.728 114.082 584.363 109.648 585.158 104.453L585.16 104.442C585.948 99.2027 584.775 94.4589 581.426 90.6222C578.114 86.7268 573.624 84.7817 568.325 84.7817C562.975 84.7817 558.113 86.6786 553.887 90.2623L553.863 90.2824L553.84 90.3028C549.729 93.8884 547.166 98.319 546.375 103.483C545.579 108.679 546.788 113.395 550.086 117.289C553.4 121.201 557.897 123.155 563.208 123.155Z" fill="black"/>
<path fill-rule="evenodd" clip-rule="evenodd" d="M511.251 143.589H494.099L495.397 134.301L487.254 140.249C484.475 142.278 480.164 143.589 473.78 143.589C463.53 143.589 455.629 139.969 449.675 132.789C443.717 125.605 441.468 116.983 443.067 106.529C444.669 96.0614 449.641 87.1277 458.2 79.6015C466.87 72.0643 476.268 68.4121 486.54 68.4121C489.267 68.4121 491.608 68.7257 493.601 69.2987L493.622 69.3047L493.643 69.3104C494.809 69.6328 495.695 69.9315 496.337 70.1966C496.947 70.448 497.189 70.6091 497.222 70.6311C497.226 70.6337 497.227 70.6344 497.225 70.6329L497.309 70.7009L501.856 74.0183L507.168 68.4121H522.942L511.251 143.589ZM477.624 126.162C483.004 126.162 487.875 124.152 492.082 120.382C496.369 116.628 499.058 111.969 499.869 106.51L499.871 106.498C500.675 100.993 499.478 96.0076 496.061 91.9759C492.683 87.8825 488.102 85.8386 482.696 85.8386C477.312 85.8386 472.406 87.8497 468.117 91.5951C463.886 95.2789 461.238 99.9327 460.316 105.404L460.309 105.447L460.303 105.491C459.491 110.951 460.724 115.907 464.088 119.998C467.49 124.134 472.141 126.162 477.624 126.162Z" fill="black"/>
<path fill-rule="evenodd" clip-rule="evenodd" d="M344.596 141.464C343.579 141.881 342.209 142.378 340.457 142.954C337.367 143.907 335.783 144 331.979 144C326.175 144 321.838 141.932 318.57 137.886C315.395 133.841 314.172 128.944 315.098 122.787L315.1 122.778L320.412 86.4809H310.501L313.151 69.1241H323.109L326.217 48.208H342.656L339.548 69.1241H354.44L351.79 86.4809H336.868L333.368 109.786L333.364 109.812C332.886 113.254 331.479 120.222 332.5 122.5C333.2 124.062 335.5 125.5 338 125.5C342.52 125.5 347.979 123.165 349 123L346.5 140.5C346.478 140.515 346.455 140.53 346.432 140.545C346.399 140.567 346.367 140.588 346.333 140.61L346.254 140.662L346.177 140.717C346.179 140.716 346.179 140.716 346.176 140.718C346.157 140.73 346.043 140.803 345.783 140.934C345.496 141.077 345.106 141.254 344.596 141.464Z" fill="black"/>
<path fill-rule="evenodd" clip-rule="evenodd" d="M370.133 50H446.156L443.824 64.9098L388.145 125.071H436.884L434.045 142.735H358L360.332 127.825L416.011 67.6637H367.395L370.133 50Z" fill="black"/>
<path fill-rule="evenodd" clip-rule="evenodd" d="M287.396 144.416H270L279.345 79H296.741L287.396 144.416Z" fill="black"/>
<path d="M298.154 62.2525L298.128 62.2748L298.102 62.2975C295.23 64.8336 292.168 66 288.73 66C285.418 66 283.053 64.9137 281.22 62.8112C279.389 60.6078 278.646 57.9828 279.158 54.533C279.665 51.1872 281.245 48.292 284.142 45.7252C287.135 43.1645 290.266 42 293.698 42C296.972 42 299.33 43.1082 301.179 45.3188L301.203 45.3475L301.227 45.3757C303.025 47.4528 303.785 49.9968 303.271 53.4676C302.768 56.7786 301.162 59.6691 298.154 62.2525Z" fill="black"/>
<path fill-rule="evenodd" clip-rule="evenodd" d="M257.115 90.2015L254.012 93.5261L257.291 96.4499C262.665 101.242 264.827 107.579 263.475 116.144C262.125 124.235 258.19 130.761 251.512 135.924C244.746 141.058 237.064 143.635 228.29 143.635H188L203.304 48H239.376C248.263 48 254.822 50.6201 259.553 55.5159L259.578 55.5424L259.604 55.5685C264.281 60.2406 266.125 66.2993 264.784 74.3644L264.782 74.3743C263.762 80.594 261.203 85.8222 257.115 90.2015ZM235.581 65.3283H218.344L214.41 89.7633H232.753C236.069 89.7633 239.098 88.6127 241.618 86.3657L241.624 86.3598C244.119 84.1257 245.753 81.3303 246.319 78.0743C246.892 74.7776 246.232 71.6139 244.059 69.0507C241.894 66.496 238.9 65.3283 235.581 65.3283ZM241.101 122.909L241.107 122.903C243.603 120.669 245.236 117.873 245.802 114.617C246.388 111.245 245.621 108.062 243.339 105.533C241.177 103.02 238.205 101.871 234.912 101.871H212.322L208.625 126.306H232.236C235.552 126.306 238.582 125.156 241.101 122.909Z" fill="black"/>
<path fill-rule="evenodd" clip-rule="evenodd" d="M23.171 68.6245C31.9408 65.5292 50.6412 59.2613 55.284 58.9519C46.4198 66.8155 26.6902 84.9442 18.6853 94.5502C18.2464 95.0768 17.8071 95.6029 17.3684 96.1281C8.55487 106.681 -0.00680719 116.933 0.181013 126.027C0.178994 126.11 0.177979 126.193 0.177979 126.276C0.177979 130.468 2.74628 134.06 6.39524 135.564C7.00712 135.84 7.66353 136.048 8.36347 136.164C8.57144 136.199 8.77998 136.225 8.98907 136.244C9.39263 136.293 9.80353 136.319 10.2204 136.319C12.1982 136.319 14.0423 135.747 15.5968 134.76C17.6371 133.818 19.7124 132.545 21.8113 131.257C22.3732 130.913 22.9367 130.567 23.5017 130.226L23.7648 130.068C28.9528 126.939 38.3478 121.273 46.6967 120.089C37.4014 132.269 20.1998 167.42 17.3151 180.562C27.9208 171.578 46.0027 159.142 67.1371 144.607C69.5774 142.928 72.0583 141.222 74.5731 139.49C82.8702 133.775 91.1086 128.46 99.2118 123.232L99.2122 123.232C106.477 118.545 113.633 113.928 120.626 109.156C127.825 104.243 134.898 99.1008 138.467 94.9925C139.408 93.9917 140.056 92.7126 140.275 91.2918C140.385 90.6044 140.387 89.916 140.29 89.2469C139.937 86.7229 138.231 84.6324 135.929 83.7311C135.724 83.6485 135.514 83.5746 135.297 83.5099C132.533 82.6825 120.486 81.9934 109.247 82.3855C96.6839 82.8238 82.1167 85.1228 71.6817 86.9562C78.5231 78.4538 96.3432 60.0589 114.142 45.0415C122.221 38.224 154.362 13.2476 176.178 0.483154C163.5 0.483226 131.968 5.96908 92.7034 24.3566C51.6779 43.5686 30.0976 61.6734 23.171 68.6245ZM26.0332 113.145C29.3512 113.145 32.041 110.455 32.041 107.137C32.041 103.819 29.3512 101.129 26.0332 101.129C22.7153 101.129 20.0255 103.819 20.0255 107.137C20.0255 110.455 22.7153 113.145 26.0332 113.145ZM153.197 86.1101C158.174 86.1101 162.208 82.0754 162.208 77.0985C162.208 72.1215 158.174 68.0869 153.197 68.0869C148.22 68.0869 144.185 72.1215 144.185 77.0985C144.185 82.0754 148.22 86.1101 153.197 86.1101Z" fill="black"/>
</svg>
