<svg width="596" height="181" viewBox="0 0 596 181" fill="none" xmlns="http://www.w3.org/2000/svg">
<path fill-rule="evenodd" clip-rule="evenodd" d="M588.989 78.5076L588.998 78.5186L589.008 78.5295C594.869 85.3767 597.082 93.5943 595.508 103.557C593.932 113.537 589.038 122.053 580.613 129.228C572.186 136.403 562.995 139.884 552.889 139.884C550.217 139.884 547.855 139.588 545.776 139.033C543.457 138.386 542.39 137.873 542.064 137.642L535.171 132.77L527.022 175H510.164L528.537 68.2374H544.679L548.256 74.0325L551.998 71.4511C554.851 69.4821 559.17 68.2374 565.441 68.2374C575.523 68.2374 583.234 71.6852 588.989 78.5076ZM556.525 123.276C561.888 123.276 566.733 121.379 570.893 117.767C575.111 114.19 577.755 109.749 578.553 104.547L578.555 104.536C579.346 99.2882 578.169 94.5373 574.808 90.6949C571.484 86.7937 566.978 84.8457 561.66 84.8457C556.291 84.8457 551.411 86.7454 547.17 90.3345L547.146 90.3546L547.123 90.375C542.997 93.966 540.425 98.4032 539.631 103.575C538.833 108.779 540.046 113.502 543.355 117.401C546.681 121.319 551.195 123.276 556.525 123.276Z" fill="black"/>
<path fill-rule="evenodd" clip-rule="evenodd" d="M504.381 143.74H487.168L488.47 134.439L480.298 140.395C477.509 142.428 473.183 143.74 466.776 143.74C456.489 143.74 448.56 140.116 442.585 132.925C436.606 125.73 434.348 117.095 435.953 106.625C437.561 96.1421 442.55 87.1951 451.141 79.6577C459.842 72.1092 469.272 68.4515 479.581 68.4515C482.319 68.4515 484.668 68.7656 486.668 69.3395L486.689 69.3454L486.71 69.3512C487.88 69.674 488.769 69.9732 489.414 70.2387C490.026 70.4905 490.269 70.6518 490.302 70.6738C490.306 70.6765 490.307 70.6771 490.305 70.6756L490.389 70.7438L494.952 74.0661L500.284 68.4515H516.114L504.381 143.74ZM470.633 126.288C476.033 126.288 480.922 124.275 485.144 120.499C489.446 116.74 492.144 112.073 492.959 106.606L492.96 106.595C493.768 101.081 492.566 96.0883 489.137 92.0505C485.746 87.9511 481.15 85.904 475.724 85.904C470.32 85.904 465.397 87.9182 461.093 91.6692C456.846 95.3585 454.189 100.019 453.264 105.499L453.257 105.542L453.25 105.586C452.436 111.054 453.673 116.017 457.05 120.114C460.463 124.257 465.131 126.288 470.633 126.288Z" fill="black"/>
<path fill-rule="evenodd" clip-rule="evenodd" d="M389.202 126.424H429.135L426.281 143.891H354.595L355.707 137.088L403.828 85.6574H363.869L366.735 68.0393H438.418L437.305 74.8461L389.202 126.424Z" fill="black"/>
<path fill-rule="evenodd" clip-rule="evenodd" d="M345.157 141.613C344.137 142.031 342.762 142.528 341.004 143.105C337.902 144.059 336.313 144.152 332.495 144.152C326.67 144.152 322.318 142.082 319.038 138.029C315.852 133.979 314.625 129.074 315.554 122.907L315.555 122.898L320.886 86.5473H310.94L313.6 69.1646H323.593L326.713 48.2173H343.211L340.091 69.1646H355.037L352.378 86.5473H337.402L333.889 109.887L333.885 109.913C333.406 113.36 331.993 120.339 333.018 122.62C333.721 124.184 336.029 125.625 338.538 125.625C343.074 125.625 348.552 123.287 349.577 123.121L347.068 140.647C347.046 140.662 347.023 140.677 347 140.693C346.967 140.714 346.935 140.735 346.901 140.757L346.821 140.809L346.744 140.865C346.746 140.863 346.746 140.864 346.743 140.866C346.724 140.877 346.609 140.951 346.349 141.081C346.061 141.225 345.669 141.403 345.157 141.613Z" fill="black"/>
<path fill-rule="evenodd" clip-rule="evenodd" d="M287.752 144.569H270.294L279.673 79.0553H297.131L287.752 144.569Z" fill="black"/>
<path d="M298.549 62.2828L298.523 62.3051L298.497 62.3278C295.615 64.8677 292.542 66.0359 289.091 66.0359C285.767 66.0359 283.393 64.9479 281.554 62.8423C279.717 60.6356 278.971 58.0067 279.485 54.5518C279.994 51.2009 281.58 48.3014 284.487 45.7307C287.49 43.1663 290.632 42 294.077 42C297.363 42 299.729 43.1099 301.585 45.3238L301.609 45.3525L301.633 45.3808C303.438 47.461 304.201 50.0087 303.684 53.4847C303.18 56.8007 301.568 59.6955 298.549 62.2828Z" fill="black"/>
<path fill-rule="evenodd" clip-rule="evenodd" d="M257.363 90.2734L254.249 93.6031L257.539 96.5312C262.933 101.331 265.102 107.677 263.745 116.255C262.391 124.358 258.442 130.894 251.74 136.064C244.949 141.206 237.24 143.786 228.434 143.786H188L203.359 48.0089H239.56C248.479 48.0089 255.062 50.6329 259.809 55.5361L259.835 55.5626L259.861 55.5887C264.554 60.2678 266.405 66.3355 265.059 74.4128L265.058 74.4227C264.034 80.6517 261.465 85.8876 257.363 90.2734ZM235.751 65.3631H218.452L214.504 89.8347H232.914C236.241 89.8347 239.282 88.6823 241.81 86.4319L241.816 86.4261C244.321 84.1886 245.96 81.389 246.528 78.1281C247.103 74.8265 246.44 71.6581 244.26 69.091C242.087 66.5326 239.083 65.3631 235.751 65.3631ZM241.291 123.029L241.298 123.024C243.802 120.786 245.441 117.987 246.009 114.726C246.597 111.349 245.828 108.161 243.537 105.628C241.368 103.112 238.385 101.961 235.081 101.961H212.409L208.699 126.432H232.395C235.723 126.432 238.763 125.28 241.291 123.029Z" fill="black"/>
<path fill-rule="evenodd" clip-rule="evenodd" d="M23.171 68.6245C31.9408 65.5292 50.6412 59.2613 55.284 58.9519C46.4198 66.8155 26.6902 84.9442 18.6853 94.5502C18.2464 95.0768 17.8071 95.6029 17.3684 96.1281C8.55487 106.681 -0.00680719 116.933 0.181013 126.027C0.178994 126.11 0.177979 126.193 0.177979 126.276C0.177979 130.468 2.74628 134.06 6.39524 135.564C7.00712 135.84 7.66353 136.048 8.36347 136.164C8.57144 136.199 8.77998 136.225 8.98907 136.244C9.39263 136.293 9.80353 136.319 10.2204 136.319C12.1982 136.319 14.0423 135.747 15.5968 134.76C17.6371 133.818 19.7124 132.545 21.8113 131.257C22.3732 130.913 22.9367 130.567 23.5017 130.226L23.7648 130.068C28.9528 126.939 38.3478 121.273 46.6967 120.089C37.4014 132.269 20.1998 167.42 17.3151 180.562C27.9208 171.578 46.0027 159.142 67.1371 144.607C69.5774 142.928 72.0583 141.222 74.5731 139.49C82.8702 133.775 91.1086 128.46 99.2118 123.232L99.2122 123.232C106.477 118.545 113.633 113.928 120.626 109.156C127.825 104.243 134.898 99.1008 138.467 94.9925C139.408 93.9917 140.056 92.7126 140.275 91.2918C140.385 90.6044 140.387 89.916 140.29 89.2469C139.937 86.7229 138.231 84.6324 135.929 83.7311C135.724 83.6485 135.514 83.5746 135.297 83.5099C132.533 82.6825 120.486 81.9934 109.247 82.3855C96.6839 82.8238 82.1167 85.1228 71.6817 86.9562C78.5231 78.4538 96.3432 60.0589 114.142 45.0415C122.221 38.224 154.362 13.2476 176.178 0.483154C163.5 0.483226 131.968 5.96908 92.7034 24.3566C51.6779 43.5686 30.0976 61.6734 23.171 68.6245ZM26.0332 113.145C29.3512 113.145 32.041 110.455 32.041 107.137C32.041 103.819 29.3512 101.129 26.0332 101.129C22.7153 101.129 20.0255 103.819 20.0255 107.137C20.0255 110.455 22.7153 113.145 26.0332 113.145ZM153.197 86.1101C158.174 86.1101 162.208 82.0754 162.208 77.0985C162.208 72.1215 158.174 68.0869 153.197 68.0869C148.22 68.0869 144.185 72.1215 144.185 77.0985C144.185 82.0754 148.22 86.1101 153.197 86.1101Z" fill="#EFC942"/>
</svg>
